# xmcd CD database file
# Copyright (C) 1996 Ti Kan
#
# Track frame offsets:
#	183
#	19085
#	33898
#	49318
#	63498
#	80008
#	99768
#	112505
#	132285
#	143470
#	153973
#	167865
#
# Disc length: 2504 seconds
#
# Revision: 1
# Processed by: cddbd v1.4b41PL1 Copyright (c) Steve Scherf et al.
# Submitted via: EasyCD 2.21
#
DISCID=8b09c60c
DTITLE=k d lang and The Reclines - Absolute Torch And Twang
DYEAR=1900
DGENRE=
TTITLE0=luck in my eyes
TTITLE1=three days
TTITLE2=trail of broken hearts
TTITLE3=big boned gal
TTITLE4=didn't i
TTITLE5=wallflower waltz
TTITLE6=full moon full of love
TTITLE7=pullin' back the reins
TTITLE8=big big love
TTITLE9=it's me
TTITLE10=walkin'in and out of your arms
TTITLE11=nowhere to stand
EXTD=
EXTT0=
EXTT1=
EXTT2=
EXTT3=
EXTT4=
EXTT5=
EXTT6=
EXTT7=
EXTT8=
EXTT9=
EXTT10=
EXTT11=
PLAYORDER=
